<mxfile host="app.diagrams.net" modified="2021-09-02T23:00:25.790Z" agent="5.0 (Windows)" etag="i_IAYQmGqnpDFwSAGp2L" version="15.0.6" type="github">
  <diagram id="WUe_F00v6wb_hHvn9v3L" name="Page-1">
    <mxGraphModel dx="1422" dy="712" grid="1" gridSize="10" guides="1" tooltips="1" connect="1" arrows="1" fold="1" page="1" pageScale="1" pageWidth="827" pageHeight="1169" math="0" shadow="0">
      <root>
        <mxCell id="0" />
        <mxCell id="1" parent="0" />
        <mxCell id="g0WpMEpv7oePF3XQuSxZ-1" value="" style="rounded=0;html=1;jettySize=auto;orthogonalLoop=1;fontSize=11;endArrow=block;endFill=0;endSize=8;strokeWidth=1;shadow=0;labelBackgroundColor=none;edgeStyle=orthogonalEdgeStyle;" edge="1" parent="1" source="g0WpMEpv7oePF3XQuSxZ-2" target="g0WpMEpv7oePF3XQuSxZ-4">
          <mxGeometry relative="1" as="geometry" />
        </mxCell>
        <mxCell id="g0WpMEpv7oePF3XQuSxZ-2" value="Página de login/cadastro" style="rounded=1;whiteSpace=wrap;html=1;fontSize=12;glass=0;strokeWidth=1;shadow=0;" vertex="1" parent="1">
          <mxGeometry x="100" y="40" width="120" height="40" as="geometry" />
        </mxCell>
        <mxCell id="g0WpMEpv7oePF3XQuSxZ-3" value="No" style="edgeStyle=orthogonalEdgeStyle;rounded=0;html=1;jettySize=auto;orthogonalLoop=1;fontSize=11;endArrow=block;endFill=0;endSize=8;strokeWidth=1;shadow=0;labelBackgroundColor=none;" edge="1" parent="1" source="g0WpMEpv7oePF3XQuSxZ-4" target="g0WpMEpv7oePF3XQuSxZ-5">
          <mxGeometry x="0.5294" y="-10" relative="1" as="geometry">
            <mxPoint x="1" as="offset" />
          </mxGeometry>
        </mxCell>
        <mxCell id="g0WpMEpv7oePF3XQuSxZ-4" value="É um consultor FC?" style="rhombus;whiteSpace=wrap;html=1;shadow=0;fontFamily=Helvetica;fontSize=12;align=center;strokeWidth=1;spacing=6;spacingTop=-4;" vertex="1" parent="1">
          <mxGeometry x="97.5" y="120" width="125" height="100" as="geometry" />
        </mxCell>
        <mxCell id="g0WpMEpv7oePF3XQuSxZ-5" value="Acesso negado" style="rounded=1;whiteSpace=wrap;html=1;fontSize=12;glass=0;strokeWidth=1;shadow=0;" vertex="1" parent="1">
          <mxGeometry x="260" y="150" width="120" height="40" as="geometry" />
        </mxCell>
        <mxCell id="g0WpMEpv7oePF3XQuSxZ-6" value="No" style="rounded=0;html=1;jettySize=auto;orthogonalLoop=1;fontSize=11;endArrow=block;endFill=0;endSize=8;strokeWidth=1;shadow=0;labelBackgroundColor=none;edgeStyle=orthogonalEdgeStyle;" edge="1" parent="1" source="g0WpMEpv7oePF3XQuSxZ-8">
          <mxGeometry x="0.3333" y="20" relative="1" as="geometry">
            <mxPoint as="offset" />
            <mxPoint x="160" y="370" as="targetPoint" />
          </mxGeometry>
        </mxCell>
        <mxCell id="g0WpMEpv7oePF3XQuSxZ-7" value="" style="edgeStyle=orthogonalEdgeStyle;rounded=0;orthogonalLoop=1;jettySize=auto;html=1;" edge="1" parent="1" source="g0WpMEpv7oePF3XQuSxZ-8" target="g0WpMEpv7oePF3XQuSxZ-15">
          <mxGeometry relative="1" as="geometry" />
        </mxCell>
        <mxCell id="g0WpMEpv7oePF3XQuSxZ-8" value="Tem cadastro?" style="rhombus;whiteSpace=wrap;html=1;shadow=0;fontFamily=Helvetica;fontSize=12;align=center;strokeWidth=1;spacing=6;spacingTop=-4;" vertex="1" parent="1">
          <mxGeometry x="105" y="245" width="110" height="90" as="geometry" />
        </mxCell>
        <mxCell id="g0WpMEpv7oePF3XQuSxZ-9" value="Realizar login" style="rounded=1;whiteSpace=wrap;html=1;fontSize=12;glass=0;strokeWidth=1;shadow=0;" vertex="1" parent="1">
          <mxGeometry x="390" y="560" width="120" height="40" as="geometry" />
        </mxCell>
        <mxCell id="g0WpMEpv7oePF3XQuSxZ-10" value="" style="edgeStyle=orthogonalEdgeStyle;rounded=0;orthogonalLoop=1;jettySize=auto;html=1;" edge="1" parent="1" source="g0WpMEpv7oePF3XQuSxZ-11" target="g0WpMEpv7oePF3XQuSxZ-13">
          <mxGeometry relative="1" as="geometry" />
        </mxCell>
        <mxCell id="g0WpMEpv7oePF3XQuSxZ-11" value="Realizar Cadastro" style="whiteSpace=wrap;html=1;shadow=0;strokeWidth=1;spacing=6;spacingTop=-4;" vertex="1" parent="1">
          <mxGeometry x="100" y="370" width="120" height="60" as="geometry" />
        </mxCell>
        <mxCell id="g0WpMEpv7oePF3XQuSxZ-12" style="edgeStyle=orthogonalEdgeStyle;rounded=0;orthogonalLoop=1;jettySize=auto;html=1;entryX=0;entryY=0.5;entryDx=0;entryDy=0;" edge="1" parent="1" source="g0WpMEpv7oePF3XQuSxZ-13" target="g0WpMEpv7oePF3XQuSxZ-9">
          <mxGeometry relative="1" as="geometry" />
        </mxCell>
        <mxCell id="g0WpMEpv7oePF3XQuSxZ-13" value="&lt;div&gt;Dados necessários &lt;br&gt;&lt;/div&gt;&lt;div&gt;para cadastro&lt;/div&gt;" style="shape=parallelogram;perimeter=parallelogramPerimeter;whiteSpace=wrap;html=1;fixedSize=1;" vertex="1" parent="1">
          <mxGeometry x="90" y="470" width="140" height="60" as="geometry" />
        </mxCell>
        <mxCell id="g0WpMEpv7oePF3XQuSxZ-14" value="" style="edgeStyle=orthogonalEdgeStyle;rounded=0;orthogonalLoop=1;jettySize=auto;html=1;" edge="1" parent="1" source="g0WpMEpv7oePF3XQuSxZ-15" target="g0WpMEpv7oePF3XQuSxZ-16">
          <mxGeometry relative="1" as="geometry" />
        </mxCell>
        <mxCell id="g0WpMEpv7oePF3XQuSxZ-15" value="&lt;div&gt;E-mail corporativo&lt;/div&gt;&lt;div&gt;e Senha&lt;br&gt;&lt;/div&gt;" style="shape=parallelogram;perimeter=parallelogramPerimeter;whiteSpace=wrap;html=1;fixedSize=1;" vertex="1" parent="1">
          <mxGeometry x="250" y="260" width="130" height="60" as="geometry" />
        </mxCell>
        <mxCell id="g0WpMEpv7oePF3XQuSxZ-16" value="Esqueceu a senha?" style="rhombus;whiteSpace=wrap;html=1;" vertex="1" parent="1">
          <mxGeometry x="410" y="250" width="80" height="80" as="geometry" />
        </mxCell>
        <mxCell id="g0WpMEpv7oePF3XQuSxZ-17" style="edgeStyle=orthogonalEdgeStyle;rounded=0;orthogonalLoop=1;jettySize=auto;html=1;exitX=0.5;exitY=1;exitDx=0;exitDy=0;entryX=1;entryY=0.5;entryDx=0;entryDy=0;" edge="1" parent="1" source="g0WpMEpv7oePF3XQuSxZ-18" target="g0WpMEpv7oePF3XQuSxZ-9">
          <mxGeometry relative="1" as="geometry" />
        </mxCell>
        <mxCell id="g0WpMEpv7oePF3XQuSxZ-18" value="Recuperar senha" style="rounded=1;whiteSpace=wrap;html=1;fontSize=12;glass=0;strokeWidth=1;shadow=0;" vertex="1" parent="1">
          <mxGeometry x="530" y="270" width="120" height="40" as="geometry" />
        </mxCell>
        <mxCell id="g0WpMEpv7oePF3XQuSxZ-19" value="No" style="edgeStyle=orthogonalEdgeStyle;rounded=0;html=1;jettySize=auto;orthogonalLoop=1;fontSize=11;endArrow=block;endFill=0;endSize=8;strokeWidth=1;shadow=0;labelBackgroundColor=none;exitX=0.5;exitY=1;exitDx=0;exitDy=0;entryX=0.5;entryY=0;entryDx=0;entryDy=0;" edge="1" parent="1" target="g0WpMEpv7oePF3XQuSxZ-9">
          <mxGeometry x="-0.0667" y="-10" relative="1" as="geometry">
            <mxPoint x="1" y="1" as="offset" />
            <mxPoint x="450.5" y="330" as="sourcePoint" />
            <mxPoint x="449.5" y="360" as="targetPoint" />
            <Array as="points" />
          </mxGeometry>
        </mxCell>
        <mxCell id="g0WpMEpv7oePF3XQuSxZ-20" value="Yes" style="rounded=0;html=1;jettySize=auto;orthogonalLoop=1;fontSize=11;endArrow=block;endFill=0;endSize=8;strokeWidth=1;shadow=0;labelBackgroundColor=none;edgeStyle=orthogonalEdgeStyle;exitX=1;exitY=0.5;exitDx=0;exitDy=0;entryX=0;entryY=0.5;entryDx=0;entryDy=0;" edge="1" parent="1" source="g0WpMEpv7oePF3XQuSxZ-16" target="g0WpMEpv7oePF3XQuSxZ-18">
          <mxGeometry y="20" relative="1" as="geometry">
            <mxPoint as="offset" />
            <mxPoint x="510" y="277.5" as="sourcePoint" />
            <mxPoint x="510" y="302.5" as="targetPoint" />
          </mxGeometry>
        </mxCell>
        <mxCell id="g0WpMEpv7oePF3XQuSxZ-21" value="Yes" style="rounded=0;html=1;jettySize=auto;orthogonalLoop=1;fontSize=11;endArrow=block;endFill=0;endSize=8;strokeWidth=1;shadow=0;labelBackgroundColor=none;edgeStyle=orthogonalEdgeStyle;" edge="1" parent="1">
          <mxGeometry y="20" relative="1" as="geometry">
            <mxPoint as="offset" />
            <mxPoint x="159.5" y="220" as="sourcePoint" />
            <mxPoint x="159.5" y="245" as="targetPoint" />
          </mxGeometry>
        </mxCell>
        <mxCell id="g0WpMEpv7oePF3XQuSxZ-22" value="" style="edgeStyle=orthogonalEdgeStyle;rounded=0;orthogonalLoop=1;jettySize=auto;html=1;" edge="1" parent="1" source="g0WpMEpv7oePF3XQuSxZ-23" target="g0WpMEpv7oePF3XQuSxZ-24">
          <mxGeometry relative="1" as="geometry" />
        </mxCell>
        <mxCell id="g0WpMEpv7oePF3XQuSxZ-23" value="Página de agendamento" style="rounded=1;whiteSpace=wrap;html=1;" vertex="1" parent="1">
          <mxGeometry x="60" y="790" width="120" height="60" as="geometry" />
        </mxCell>
        <mxCell id="g0WpMEpv7oePF3XQuSxZ-24" value="Deseja agendar um horário?" style="rhombus;whiteSpace=wrap;html=1;" vertex="1" parent="1">
          <mxGeometry x="75" y="880" width="90" height="90" as="geometry" />
        </mxCell>
        <mxCell id="g0WpMEpv7oePF3XQuSxZ-25" value="No" style="edgeStyle=orthogonalEdgeStyle;rounded=0;html=1;jettySize=auto;orthogonalLoop=1;fontSize=11;endArrow=block;endFill=0;endSize=8;strokeWidth=1;shadow=0;labelBackgroundColor=none;entryX=0;entryY=0.5;entryDx=0;entryDy=0;" edge="1" parent="1" target="g0WpMEpv7oePF3XQuSxZ-27">
          <mxGeometry x="0.5294" y="-10" relative="1" as="geometry">
            <mxPoint x="1" as="offset" />
            <mxPoint x="165" y="924.5" as="sourcePoint" />
            <mxPoint x="202.5" y="924.5" as="targetPoint" />
          </mxGeometry>
        </mxCell>
        <mxCell id="g0WpMEpv7oePF3XQuSxZ-26" value="Yes" style="rounded=0;html=1;jettySize=auto;orthogonalLoop=1;fontSize=11;endArrow=block;endFill=0;endSize=8;strokeWidth=1;shadow=0;labelBackgroundColor=none;edgeStyle=orthogonalEdgeStyle;" edge="1" parent="1">
          <mxGeometry y="20" relative="1" as="geometry">
            <mxPoint as="offset" />
            <mxPoint x="119.5" y="970" as="sourcePoint" />
            <mxPoint x="119.5" y="995" as="targetPoint" />
          </mxGeometry>
        </mxCell>
        <mxCell id="g0WpMEpv7oePF3XQuSxZ-27" value="&lt;div&gt;Deseja &lt;br&gt;&lt;/div&gt;&lt;div&gt;gerenciar seu agendamento?&lt;/div&gt;" style="rhombus;whiteSpace=wrap;html=1;" vertex="1" parent="1">
          <mxGeometry x="289" y="875" width="130" height="100" as="geometry" />
        </mxCell>
        <mxCell id="g0WpMEpv7oePF3XQuSxZ-28" value="No" style="edgeStyle=orthogonalEdgeStyle;rounded=0;html=1;jettySize=auto;orthogonalLoop=1;fontSize=11;endArrow=block;endFill=0;endSize=8;strokeWidth=1;shadow=0;labelBackgroundColor=none;exitX=0.5;exitY=1;exitDx=0;exitDy=0;entryX=0.5;entryY=0;entryDx=0;entryDy=0;" edge="1" parent="1" source="g0WpMEpv7oePF3XQuSxZ-27" target="g0WpMEpv7oePF3XQuSxZ-30">
          <mxGeometry x="0.1111" y="-14" relative="1" as="geometry">
            <mxPoint as="offset" />
            <mxPoint x="354" y="990" as="sourcePoint" />
            <mxPoint x="354" y="1020" as="targetPoint" />
            <Array as="points" />
          </mxGeometry>
        </mxCell>
        <mxCell id="g0WpMEpv7oePF3XQuSxZ-29" value="Yes" style="rounded=0;html=1;jettySize=auto;orthogonalLoop=1;fontSize=11;endArrow=block;endFill=0;endSize=8;strokeWidth=1;shadow=0;labelBackgroundColor=none;edgeStyle=orthogonalEdgeStyle;exitX=1;exitY=0.5;exitDx=0;exitDy=0;" edge="1" parent="1" source="g0WpMEpv7oePF3XQuSxZ-27">
          <mxGeometry y="20" relative="1" as="geometry">
            <mxPoint as="offset" />
            <mxPoint x="470" y="912.5" as="sourcePoint" />
            <mxPoint x="490" y="925" as="targetPoint" />
          </mxGeometry>
        </mxCell>
        <mxCell id="g0WpMEpv7oePF3XQuSxZ-30" value="Logoff" style="rounded=1;whiteSpace=wrap;html=1;" vertex="1" parent="1">
          <mxGeometry x="302" y="1160" width="104" height="40" as="geometry" />
        </mxCell>
        <mxCell id="g0WpMEpv7oePF3XQuSxZ-31" value="" style="edgeStyle=orthogonalEdgeStyle;rounded=0;orthogonalLoop=1;jettySize=auto;html=1;" edge="1" parent="1" source="g0WpMEpv7oePF3XQuSxZ-32" target="g0WpMEpv7oePF3XQuSxZ-34">
          <mxGeometry relative="1" as="geometry" />
        </mxCell>
        <mxCell id="g0WpMEpv7oePF3XQuSxZ-32" value="&lt;div&gt;Selecionar estação de trabalho, dia e horário&lt;/div&gt;" style="shape=parallelogram;perimeter=parallelogramPerimeter;whiteSpace=wrap;html=1;fixedSize=1;" vertex="1" parent="1">
          <mxGeometry x="40" y="995" width="160" height="60" as="geometry" />
        </mxCell>
        <mxCell id="g0WpMEpv7oePF3XQuSxZ-33" style="edgeStyle=orthogonalEdgeStyle;rounded=0;orthogonalLoop=1;jettySize=auto;html=1;entryX=0;entryY=0.5;entryDx=0;entryDy=0;" edge="1" parent="1" source="g0WpMEpv7oePF3XQuSxZ-34" target="g0WpMEpv7oePF3XQuSxZ-30">
          <mxGeometry relative="1" as="geometry" />
        </mxCell>
        <mxCell id="g0WpMEpv7oePF3XQuSxZ-34" value="Salvar alterações" style="rounded=1;whiteSpace=wrap;html=1;" vertex="1" parent="1">
          <mxGeometry x="60" y="1100" width="120" height="50" as="geometry" />
        </mxCell>
        <mxCell id="g0WpMEpv7oePF3XQuSxZ-35" style="edgeStyle=orthogonalEdgeStyle;rounded=0;orthogonalLoop=1;jettySize=auto;html=1;entryX=0.5;entryY=0;entryDx=0;entryDy=0;" edge="1" parent="1" source="g0WpMEpv7oePF3XQuSxZ-36" target="g0WpMEpv7oePF3XQuSxZ-38">
          <mxGeometry relative="1" as="geometry" />
        </mxCell>
        <mxCell id="g0WpMEpv7oePF3XQuSxZ-36" value="&lt;div&gt;Alterar estação de trabalho, dia, horário &lt;br&gt;&lt;/div&gt;&lt;div&gt;ou remover&lt;/div&gt;&lt;div&gt; agendamento&lt;/div&gt;" style="shape=parallelogram;perimeter=parallelogramPerimeter;whiteSpace=wrap;html=1;fixedSize=1;" vertex="1" parent="1">
          <mxGeometry x="480" y="892.5" width="150" height="65" as="geometry" />
        </mxCell>
        <mxCell id="g0WpMEpv7oePF3XQuSxZ-37" style="edgeStyle=orthogonalEdgeStyle;rounded=0;orthogonalLoop=1;jettySize=auto;html=1;entryX=1;entryY=0.5;entryDx=0;entryDy=0;" edge="1" parent="1" source="g0WpMEpv7oePF3XQuSxZ-38" target="g0WpMEpv7oePF3XQuSxZ-30">
          <mxGeometry relative="1" as="geometry" />
        </mxCell>
        <mxCell id="g0WpMEpv7oePF3XQuSxZ-38" value="Salvar alterações" style="rounded=1;whiteSpace=wrap;html=1;" vertex="1" parent="1">
          <mxGeometry x="495" y="1010" width="120" height="50" as="geometry" />
        </mxCell>
      </root>
    </mxGraphModel>
  </diagram>
</mxfile>
